<svg xmlns:xlink="http://www.w3.org/1999/xlink" xmlns="http://www.w3.org/2000/svg" viewBox="0 0 362 23" fill="none" data-inject-url="https://fixdate.io/modelo-invitacion/125/img/adorno-titulo.svg" class="injectable adorno-titulo" width="362"  height="23" >
  <g fill="none">
    <path d="M181.146 8.81658C181.216 8.81658 181.286 8.80658 181.346 8.77658C181.636 8.66658 181.776 8.34658 181.676 8.05658C181.666 8.01658 181.506 7.45658 182.076 6.65658C183.436 4.78658 188.796 1.63658 209.356 1.63658H361.336C361.646 1.63658 361.906 1.38658 361.906 1.06658C361.906 0.746582 361.656 0.496582 361.336 0.496582H209.356C189.166 0.496582 182.846 3.52658 181.096 6.07658C180.226 7.33658 180.566 8.33658 180.606 8.44658C180.696 8.67658 180.906 8.80658 181.136 8.80658L181.146 8.81658Z" fill="#BA9972"></path>
    <path d="M181.146 22.5965L186.516 15.2365L181.146 7.32654L175.566 14.9565L181.146 22.5965Z" fill="#BA9972"></path>
    <path d="M267.326 1.26654C267.326 1.26654 280.216 1.20654 286.586 7.21654C286.586 7.21654 294.516 1.17654 304.986 1.07654L267.316 1.26654H267.326Z" fill="#BA9972"></path>
    <path d="M181.316 8.80658C181.546 8.80658 181.756 8.67658 181.836 8.44658C181.876 8.33658 182.216 7.34658 181.346 6.07658C179.596 3.53658 173.276 0.496582 153.086 0.496582H1.11626C0.806265 0.496582 0.546265 0.746582 0.546265 1.06658C0.546265 1.38658 0.796265 1.63658 1.11626 1.63658H153.096C173.656 1.63658 179.016 4.78658 180.376 6.65658C180.966 7.45658 180.786 8.02658 180.776 8.05658C180.686 8.34658 180.836 8.66658 181.126 8.77658C181.186 8.79658 181.256 8.80658 181.316 8.80658Z" fill="#BA9972"></path>
    <path d="M95.1363 1.26654C95.1363 1.26654 82.2463 1.20654 75.8763 7.21654C75.8763 7.21654 67.9463 1.17654 57.4763 1.07654L95.1363 1.26654Z" fill="#BA9972"></path>
  </g>
</svg>