<svg xmlns:xlink="http://www.w3.org/1999/xlink" xmlns="http://www.w3.org/2000/svg" viewBox="0 0 118 69" fill="none" data-inject-url="https://fixdate.io/modelo-invitacion/125/img/adorno-modal-musica.svg" class="injectable adorno adorno-modal-musica" width="118"  height="69" >
  <g fill="none">
    <path class="ovalo" d="M63.1049 54.58C62.7149 52.93 62.2248 51.44 61.6148 50.02C61.2248 49.1 60.8249 48.31 60.3949 47.61L59.4049 45.96C59.1249 45.49 58.5049 45.33 58.0349 45.62C57.8949 45.7 57.7949 45.82 57.7149 45.94C57.6549 46 57.5848 46.05 57.5448 46.13L56.6549 47.61C56.2249 48.32 55.8248 49.11 55.4348 50.02C54.8248 51.45 54.3349 52.94 53.9449 54.59C53.2749 57.48 53.1149 60.15 53.4949 62.32C53.6849 63.41 54.0049 64.37 54.4449 65.19C54.8749 66 56.2448 67.35 56.5948 67.55C56.7948 67.68 56.9749 67.78 57.1249 67.86C57.5749 68.1 58.0749 68.2 58.1749 68.22C58.2349 68.23 58.2949 68.24 58.3549 68.24C58.4149 68.24 58.4649 68.22 58.5149 68.21C58.5349 68.21 58.5649 68.21 58.5849 68.21C59.3849 68.15 59.7949 67.96 60.0149 67.81C60.1449 67.74 60.2749 67.66 60.4049 67.58C60.6349 67.45 60.8348 67.29 61.0248 67.13L61.1549 67.03C61.7349 66.51 62.2249 65.9 62.6049 65.2C63.0449 64.38 63.3649 63.42 63.5549 62.33C63.9349 60.17 63.7749 57.49 63.1049 54.59V54.58Z" fill="#9B774C"></path>
    <path class="trazo" d="M89.985 1.09C87.915 0.869995 85.355 1.05 82.465 1.6C79.575 2.16 76.355 3.07 72.885 4.29C69.405 5.5 65.675 6.99999 61.705 8.68999C57.745 10.38 53.555 12.28 49.135 14.17C46.925 15.1 44.645 16.05 42.305 16.81C41.725 17 41.135 17.17 40.545 17.32C40.255 17.39 39.955 17.46 39.665 17.51L38.725 17.68C37.455 17.91 36.175 18.13 34.885 18.34C29.725 19.16 24.335 19.81 18.885 19.55C18.425 19.52 17.965 19.48 17.505 19.45L16.815 19.4L16.135 19.31C15.685 19.25 15.235 19.19 14.785 19.13C14.345 19.04 13.905 18.96 13.465 18.87C13.245 18.83 13.025 18.79 12.805 18.74L12.165 18.57C11.735 18.45 11.305 18.35 10.885 18.22C10.065 17.92 9.22499 17.67 8.46499 17.28C6.88499 16.62 5.48499 15.67 4.24499 14.58C3.02499 13.49 1.99499 12.22 1.43499 10.87C1.17499 10.2 1.02499 9.52 1.07499 8.87C1.11499 8.23 1.32499 7.62 1.71499 7.08C1.89499 6.8 2.13499 6.55 2.38499 6.31C2.64499 6.06 2.96499 5.82 3.24499 5.58C3.55499 5.36 3.86499 5.14 4.17499 4.94C4.50499 4.76 4.81499 4.55 5.15499 4.4C7.84499 3.06 10.955 2.9 13.835 3.3C16.735 3.69 19.475 4.58 22.005 5.56C24.535 6.56 26.875 7.66999 29.035 8.77999C33.345 11.02 36.965 13.21 39.895 15.01C42.725 16.96 46.145 19.42 50.085 22.28C54.035 25.13 58.485 28.39 63.515 31.78C66.035 33.47 68.695 35.18 71.555 36.83C74.425 38.46 77.485 40.05 80.885 41.24C82.585 41.82 84.385 42.3 86.305 42.51C88.155 42.67 90.055 42.74 91.995 42.55C93.925 42.34 95.895 41.89 97.755 40.99C98.665 40.5 99.575 39.97 100.345 39.21C100.755 38.87 101.095 38.43 101.435 38.01C101.595 37.79 101.735 37.55 101.885 37.32C102.045 37.09 102.155 36.84 102.265 36.58C102.945 35.09 103.095 33.34 102.625 31.8C102.175 30.25 101.235 28.92 100.115 27.89C98.985 26.86 97.695 26.08 96.345 25.55C95.005 25 93.625 24.62 92.245 24.41C89.485 23.96 86.765 24.01 84.165 24.31C83.515 24.36 82.855 24.48 82.205 24.59C81.555 24.73 80.915 24.87 80.285 25.06C79.035 25.43 77.825 25.89 76.695 26.45C75.565 27.01 74.495 27.64 73.485 28.33C72.485 29.02 71.545 29.76 70.665 30.53C68.905 32.08 67.385 33.73 66.015 35.4C63.295 38.75 61.185 42.13 59.325 45.22C58.865 45.99 58.415 46.74 57.975 47.48C57.515 48.24 57.145 49.01 56.815 49.77C56.165 51.29 55.715 52.77 55.385 54.17C54.735 56.98 54.595 59.5 54.945 61.5C55.115 62.5 55.415 63.37 55.785 64.06C56.155 64.76 57.405 65.94 57.585 66.04C57.755 66.15 57.905 66.24 58.035 66.3C58.375 66.49 58.825 66.58 58.825 66.58" stroke-miterlimit="10" stroke-linecap="round" stroke="#9B774C" fill="none"></path>
    <path class="trazo" d="M28.0149 1.09C30.0849 0.869995 32.6449 1.05 35.5349 1.6C38.4249 2.16 41.6449 3.07 45.1149 4.29C48.5949 5.5 52.3249 6.99999 56.2949 8.68999C60.2549 10.38 64.4449 12.28 68.8649 14.17C71.0749 15.1 73.3549 16.05 75.6949 16.81C76.2749 17 76.8649 17.17 77.4549 17.32C77.7449 17.39 78.0449 17.46 78.3349 17.51L79.2749 17.68C80.5449 17.91 81.8249 18.13 83.1149 18.34C88.2749 19.16 93.6649 19.81 99.1149 19.55C99.5749 19.52 100.035 19.48 100.495 19.45L101.185 19.4L101.865 19.31C102.315 19.25 102.765 19.19 103.215 19.13C103.655 19.04 104.095 18.96 104.535 18.87C104.755 18.83 104.975 18.79 105.195 18.74L105.835 18.57C106.265 18.45 106.695 18.35 107.115 18.22C107.935 17.92 108.775 17.67 109.535 17.28C111.115 16.62 112.515 15.67 113.755 14.58C114.975 13.49 116.005 12.22 116.565 10.87C116.825 10.2 116.975 9.52 116.925 8.87C116.885 8.23 116.675 7.62 116.285 7.08C116.105 6.8 115.865 6.55 115.615 6.31C115.355 6.06 115.035 5.82 114.755 5.58C114.445 5.36 114.135 5.14 113.825 4.94C113.495 4.76 113.185 4.55 112.845 4.4C110.155 3.06 107.045 2.9 104.165 3.3C101.265 3.69 98.5249 4.58 95.9949 5.56C93.4649 6.56 91.1249 7.66999 88.9649 8.77999C84.6549 11.02 81.0349 13.21 78.1049 15.01C75.2749 16.96 71.8549 19.42 67.9149 22.28C63.9649 25.13 59.5149 28.39 54.4849 31.78C51.9649 33.47 49.3049 35.18 46.4449 36.83C43.5749 38.46 40.5149 40.05 37.1149 41.24C35.4149 41.82 33.6149 42.3 31.6949 42.51C29.8449 42.67 27.9449 42.74 26.0049 42.55C24.0749 42.34 22.1049 41.89 20.2449 40.99C19.3349 40.5 18.4249 39.97 17.6549 39.21C17.2449 38.87 16.9049 38.43 16.5649 38.01C16.4049 37.79 16.2649 37.55 16.1149 37.32C15.9549 37.09 15.8449 36.84 15.7349 36.58C15.0549 35.09 14.9049 33.34 15.3749 31.8C15.8249 30.25 16.7649 28.92 17.8849 27.89C19.0149 26.86 20.3049 26.08 21.6549 25.55C22.9949 25 24.3749 24.62 25.7549 24.41C28.5149 23.96 31.2349 24.01 33.8349 24.31C34.4849 24.36 35.1449 24.48 35.7949 24.59C36.4449 24.73 37.0849 24.87 37.7149 25.06C38.9649 25.43 40.1749 25.89 41.3049 26.45C42.4349 27.01 43.5049 27.64 44.5149 28.33C45.5149 29.02 46.4549 29.76 47.3349 30.53C49.0949 32.08 50.6149 33.73 51.9849 35.4C54.7049 38.75 56.8149 42.13 58.6749 45.22C59.1349 45.99 59.5849 46.74 60.0249 47.48C60.4849 48.24 60.8549 49.01 61.1849 49.77C61.8349 51.29 62.2849 52.77 62.6149 54.17C63.2649 56.98 63.4049 59.5 63.0549 61.5C62.8849 62.5 62.5849 63.37 62.2149 64.06C61.8449 64.76 61.3949 65.26 60.9849 65.62C60.7749 65.79 60.5949 65.94 60.4149 66.04C60.2449 66.15 60.0949 66.24 59.9649 66.3C59.7849 66.49 59.0049 66.55 59.0049 66.55" stroke-miterlimit="10" stroke-linecap="round" stroke="#9B774C" fill="none"></path>
  </g>
</svg>