<svg xmlns="http://www.w3.org/2000/svg" xmlns:xlink="http://www.w3.org/1999/xlink" version="1.1" id="Capa_1" x="0px" y="0px" viewBox="0 0 140.2 117.1" style="enable-background:new 0 0 140.2 117.1;" xml:space="preserve" data-inject-url="https://fixdate.io/modelo-invitacion/125/img/img_circuloCeremonia.svg" class="injectable modal-icon icon-ceremonia" width="100"  height="117.1" >
<style type="text/css">
	.st0{fill:none;stroke:#282828;stroke-width:2;stroke-miterlimit:10;}
</style>
<g>
	<g>
		<g>
			<path class="st0" d="M77,43.2c-0.8,0-1.5-0.7-2-1.1c-0.1-0.1-0.2-0.2-0.3-0.2c-2.4-2.1-4.5-4.5-6.3-7.1c-0.4-0.6-0.8-1.3-1.2-1.9     c-2.5-4.4-4-9.3-4.5-14.5c-0.2-1.8-0.2-3.8,0.9-5.4c0.4-0.5,1.2-1.5,2.6-1.7c1.4-0.2,2.9,0.4,4.3,1.9c3,3.1,4.3,6.9,5.1,10.8     c1-3.3,2.4-6.2,4.1-8.7c0.6-0.9,1.3-1.8,2.4-2.5c1.2-0.8,2.7-1.2,4-1c1.6,0.2,3.5,1.4,3.9,3.6c0.3,1.6-0.3,3.2-0.9,4.5     c-0.9,1.9-1.9,3.8-2.8,5.7c-1,1.9-2,3.8-2.8,5.7c-0.5,1.2-1,2.4-1.4,3.6c-0.2,0.6-0.5,1.2-0.7,1.8c-0.6,1.4-1.2,3.1-2.1,4.6     c0,0.1-0.1,0.2-0.1,0.3c-0.3,0.6-0.8,1.6-1.9,1.7C77.1,43.2,77,43.2,77,43.2z M77,42L77,42L77,42z" stroke="#282828" fill="none" stroke-width="2px"></path>
		</g>
		<ellipse class="st0" cx="91.9" cy="77.8" rx="28.6" ry="29.3" stroke="#282828" fill="none" stroke-width="2px"></ellipse>
		<ellipse class="st0" cx="50.8" cy="75.3" rx="31.1" ry="31.9" stroke="#282828" fill="none" stroke-width="2px"></ellipse>
	</g>
</g>
</svg>