<svg xmlns="http://www.w3.org/2000/svg" xmlns:xlink="http://www.w3.org/1999/xlink" version="1.1" id="" x="0px" y="0px" viewBox="0 0 10.8 23.2" style="enable-background:new 0 0 10.8 23.2;" xml:space="preserve" data-inject-url="https://fixdate.io/modelo-invitacion/125/img/adorno_gota.svg" class="injectable adorno-gota" width="10.8"  height="23.2" >
	 
	<path class="st0" d="M10.5,6.1c-0.2-1.1-0.5-2.1-1-2.9C9.1,2.6,8.6,2,8.1,1.4L7.9,1.3C7.7,1.2,7.5,1,7.3,0.9C7.2,0.8,7,0.7,6.9,0.7  C6.7,0.5,6.3,0.3,5.5,0.3c0,0,0,0-0.1,0c0,0,0,0,0,0c-0.1,0-0.1,0-0.2,0c-0.1,0-0.1,0-0.2,0C5,0.3,4.5,0.4,4,0.6  C3.9,0.7,3.7,0.8,3.5,0.9C3.1,1.1,1.8,2.5,1.3,3.3C0.9,4.1,0.6,5.1,0.4,6.1C0,8.3,0.2,11,0.8,13.9c0.4,1.6,0.9,3.1,1.5,4.6  c0.4,0.9,0.8,1.7,1.2,2.4l0.9,1.5c0,0.1,0.1,0.1,0.2,0.2c0.1,0.1,0.2,0.2,0.3,0.3C5.4,23.1,6,23,6.3,22.5l1-1.7  c0.4-0.7,0.8-1.5,1.2-2.4c0.6-1.4,1.1-2.9,1.5-4.6C10.7,11,10.8,8.3,10.5,6.1z" fill="#9B774C" stroke-width="1.7553px"></path>
</svg>